<?xml version="1.0" encoding="iso-8859-1"?>
<!-- Generator: Adobe Illustrator 21.0.0, SVG Export Plug-In . SVG Version: 6.00 Build 0)  -->
<svg xmlns="http://www.w3.org/2000/svg" xmlns:xlink="http://www.w3.org/1999/xlink" version="1.1" id="Capa_1" x="0px" y="0px" viewBox="0 0 512 512" style="enable-background:new 0 0 512 512;" xml:space="preserve" width="512" height="512">
<g>
	<path style="fill:#EFE2DD;" d="M512,316v60c0,75.601-112.899,136-256,136S0,451.601,0,376v-60c0-8.401,6.599-15,15-15h482   C505.401,301,512,307.599,512,316z"/>
	<path style="fill:#CDBFBA;" d="M512,316v60c0,75.601-112.899,136-256,136V301h241C505.401,301,512,307.599,512,316z"/>
	<path style="fill:#FFF5F5;" d="M512,316c0,74.7-115.3,135-256,135S0,390.7,0,316s115.3-135,256-135S512,241.3,512,316z"/>
	<path style="fill:#EFE2DD;" d="M512,316c0,74.7-115.3,135-256,135V181C396.7,181,512,241.3,512,316z"/>
	<path style="fill:#7C8388;" d="M296.499,86.499l-30,30C263.8,119.5,259.9,121,256,121s-7.8-1.5-10.499-4.501l-30-30   c-6-5.7-6-15.298,0-20.999c5.7-6,15.298-6,20.999,0L241,69.699V15c0-8.401,6.599-15,15-15s15,6.599,15,15v54.699l4.501-4.199   c5.7-6,15.298-6,20.999,0C302.5,71.201,302.5,80.799,296.499,86.499z"/>
	<path style="fill:#575F64;" d="M266.499,116.499C263.8,119.5,259.9,121,256,121V0c8.401,0,15,6.599,15,15v54.699l4.501-4.199   c5.7-6,15.298-6,20.999,0c6,5.7,6,15.298,0,20.999L266.499,116.499z"/>
	<path style="fill:#E63950;" d="M391,226v90c0,42.9-57.9,75-135,75s-135-32.1-135-75v-90c0-8.401,6.599-15,15-15h240   C384.401,211,391,217.599,391,226z"/>
	<path style="fill:#AE2538;" d="M391,226v90c0,42.9-57.9,75-135,75V211h120C384.401,211,391,217.599,391,226z"/>
	<g>
		<path style="fill:#FF637B;" d="M256,151c-77.1,0-135,32.1-135,75s57.9,75,135,75s135-32.1,135-75S333.1,151,256,151z"/>
	</g>
	<path style="fill:#E63950;" d="M391,226c0,42.9-57.9,75-135,75V151C333.1,151,391,183.1,391,226z"/>
</g>















</svg>
