<svg preserveAspectRatio="xMinYMid" viewBox="0 0 64 64" xmlns="http://www.w3.org/2000/svg" fill-rule="evenodd" clip-rule="evenodd" stroke-linejoin="round" stroke-miterlimit="1.414"><path d="M53.404 38.936l-2.992-6.949 2.986-6.945-6.506-3.875-1.669-7.38-7.537.693-5.693-4.987-5.685 4.993-7.535-.704-1.662 7.375-6.509 3.887 2.992 6.95-2.992 6.964 6.506 3.875 1.669 7.38 7.543-.713 5.693 4.987 5.685-4.993 7.54.684 1.663-7.374 6.503-3.868z" fill="#ffd670" fill-opacity=".7" fill-rule="nonzero"/><path d="M54.5 31.99l-4.991-5.687.695-7.527L42.82 17.1l-3.866-6.505L32 13.581l-6.955-2.987L21.18 17.1l-7.385 1.657.696 7.527L9.5 31.99l4.99 5.686-.695 7.548L21.18 46.9l3.865 6.505L32 50.399l6.954 2.986 3.866-6.504 7.384-1.678-.695-7.527 4.99-5.686z" fill="#ffcc01" fill-rule="nonzero"/><circle cx="29" cy="31" r="17" fill="#fdfdfd" transform="translate(3 1)"/><circle cx="29" cy="31" r="17" fill="#f3f3f3" transform="translate(6.412 4.647) scale(.88235)"/><circle cx="29" cy="31" r="17" fill="#fdfdfd" transform="translate(10.873 9.416) scale(.7285)"/><path d="M37.871 27.936a1.277 1.277 0 00-1.806 0l-5.42 5.419-2.709-2.709a1.278 1.278 0 00-1.807 1.806l3.612 3.612a1.278 1.278 0 001.807 0l6.322-6.322c.5-.499.5-1.307.001-1.806z" fill="#1993e9" fill-rule="nonzero"/></svg>