<svg preserveAspectRatio="xMinYMid" viewBox="0 0 64 64" xmlns="http://www.w3.org/2000/svg" fill-rule="evenodd" clip-rule="evenodd" stroke-miterlimit="1.414"><path d="M54.5 49.477c-.001 2.209-1.724 3.999-3.847 3.999H13.345c-2.123 0-3.845-1.791-3.845-4V14.523c0-2.209 1.722-4 3.845-4h37.311c2.122 0 3.845 1.791 3.845 4l-.002 34.954h.001z" fill="#fff" fill-rule="nonzero" stroke-width="1.5" stroke="#bdbdbd"/><path d="M23.369 25.071l-.682-2.239h-3.43l-.682 2.239h-2.149l3.32-9.446h2.439l3.333 9.446h-2.149zm-1.158-3.912a579.623 579.623 0 01-1.065-3.443 9.893 9.893 0 01-.171-.63c-.141.549-.547 1.906-1.216 4.073h2.452zm25.13 3.684c-.392.196-1.274.406-2.423.406-3.264 0-4.945-2.03-4.945-4.72 0-3.222 2.299-5.015 5.155-5.015 1.106 0 1.947.224 2.325.42l-.434 1.694a4.626 4.626 0 00-1.793-.35c-1.695 0-3.014 1.022-3.014 3.123 0 1.892 1.12 3.082 3.023 3.082.646 0 1.359-.14 1.779-.308l.327 1.668zm-18.217-9.194h2.928c1.334 0 2.302.19 2.905.57.603.379.904.983.904 1.811 0 .562-.132 1.023-.396 1.383a1.576 1.576 0 01-1.052.65v.065c.597.133 1.027.381 1.29.746.264.365.396.849.396 1.454 0 .858-.31 1.527-.93 2.008-.62.48-1.461.721-2.525.721h-3.52v-9.408zm1.995 3.726h1.158c.54 0 .932-.084 1.174-.251.243-.167.364-.444.364-.83 0-.361-.132-.619-.396-.776-.264-.156-.681-.234-1.251-.234h-1.049v2.091zm0 1.583v2.451h1.3c.549 0 .954-.105 1.216-.315.261-.21.392-.532.392-.965 0-.781-.557-1.171-1.673-1.171h-1.235zm-5.704 12.497c0 1.549-.441 2.735-1.322 3.559-.882.823-2.155 1.235-3.819 1.235H17.61v-9.407h2.953c1.536 0 2.729.405 3.578 1.216.85.811 1.274 1.943 1.274 3.397zm-2.072.052c0-2.021-.892-3.031-2.677-3.031h-1.061v6.126h.856c1.921 0 2.882-1.032 2.882-3.095zm11.862 4.728h-5.418v-9.408h5.418v1.635h-3.423v2.065h3.185v1.635h-3.185v2.425h3.423v1.648z" fill="#56afb1" fill-rule="nonzero"/><circle cx="44.814" cy="37.615" r="1.209" fill="#56afb1" transform="translate(-4.798 -.779)"/><circle cx="44.814" cy="37.615" r="1.209" fill="#56afb1" transform="translate(-.957 -.779)"/><circle cx="44.814" cy="37.615" r="1.209" fill="#56afb1" transform="translate(2.885 -.779)"/></svg>