<svg preserveAspectRatio="xMinYMid" viewBox="0 0 64 64" xmlns="http://www.w3.org/2000/svg" fill-rule="evenodd" clip-rule="evenodd" stroke-linecap="round" stroke-linejoin="round" stroke-miterlimit="1.414"><path d="M17.32 21.79l.027 27.426A3.782 3.782 0 0021.131 53h21.74a3.781 3.781 0 003.784-3.783l.024-27.428H17.321z" fill="#fff" fill-opacity=".5"/><path d="M17.32 21.79l.027 27.427A3.782 3.782 0 0021.131 53h21.74a3.78 3.78 0 003.784-3.782l.024-27.428" fill="none" stroke-width="1.86662" stroke="#fff"/><path d="M14.426 17.607l34.716-9.302" fill="none" stroke-width="2.8" stroke="#fff"/><path d="M37.494 11.426l-.905-3.378a2.563 2.563 0 00-3.138-1.812L26.98 7.971a2.562 2.562 0 00-1.81 3.137l.905 3.378" fill="none" stroke-width="1.867" stroke-linecap="butt" stroke-linejoin="miter" stroke="#fff"/><path d="M38.52 46.417l.025-21.828m-13.09 21.828l.024-21.828m6.509 21.828l.024-21.828" fill="none" stroke-width="1.86662" stroke="#fff"/></svg>