<svg preserveAspectRatio="xMinYMid" viewBox="0 0 64 64" xmlns="http://www.w3.org/2000/svg" fill-rule="evenodd" clip-rule="evenodd" stroke-linecap="round" stroke-linejoin="round" stroke-miterlimit="1.414"><path d="M17.32 21.79l.027 27.426A3.782 3.782 0 0021.131 53h21.74a3.781 3.781 0 003.784-3.783l.024-27.428H17.321z" fill="#fff"/><path d="M17.32 21.79l.027 27.427A3.782 3.782 0 0021.131 53h21.74a3.78 3.78 0 003.784-3.782l.024-27.428" fill="none" stroke-width="1.86662" stroke="#d35444"/><path d="M14.03 17.06h35.94" fill="none" stroke-width="2.79993" stroke="#d35444"/><path d="M37.912 17.06v-3.498A2.563 2.563 0 0035.35 11h-6.702a2.562 2.562 0 00-2.56 2.562v3.497" fill="none" stroke-width="1.86662" stroke-linecap="butt" stroke-linejoin="miter" stroke="#d35444"/><path d="M38.52 46.417l.025-21.828m-13.09 21.828l.024-21.828m6.509 21.828l.024-21.828" fill="none" stroke-width="1.86662" stroke="#d35444"/></svg>