<svg preserveAspectRatio="xMinYMid" viewBox="0 0 64 64" xmlns="http://www.w3.org/2000/svg" fill-rule="evenodd" clip-rule="evenodd" stroke-linejoin="round" stroke-miterlimit="1.414"><path d="M55.87 40.99c.115 1.636-1.228 4.402-4.226 4.402H40.689c0 1.203.498 2.858 1.494 4.964.996 2.106 1.494 3.77 1.494 4.995 0 2.033-.332 3.537-.996 4.512-.664.975-1.992 1.463-3.983 1.463-.54-.54-.934-1.421-1.183-2.645a57.065 57.065 0 00-.95-3.906c-.383-1.38-1-2.516-1.85-3.408-.457-.477-1.67-1.74-2.81-3.15-2.137-2.58-4.13-5.303-6.045-6.528-.959-.614-2.1-.28-2.1-.28s-.055-19.875 0-19.918c9.253-.132 24.12-5.73 27.51.592.399.742.35 1.71 0 2.365.623.332 1.722.993 2.023 2.943a4.76 4.76 0 01-.56 3.125c1.1 1.038 1.622 2.272 1.65 3.704.041 2.17-.779 2.852-1.09 3.205.664.02 2.426 1.409 2.578 3.565z" fill="#fff" fill-rule="nonzero" stroke="#858990" stroke-width="2"/><circle cx="285.113" cy="1413.27" r="65.022" fill="#fff" transform="matrix(.03112 0 0 -.03112 9.687 69.194)"/><path fill="#e74c3c" d="M9.89 19.847h14.845v24.355H9.89z"/><circle cx="285.113" cy="1413.27" r="65.022" fill="#fdfdfd" transform="translate(11.687 -3.646) scale(.03112)"/></svg>