<svg preserveAspectRatio="xMinYMid" viewBox="0 0 64 64" xmlns="http://www.w3.org/2000/svg" fill-rule="evenodd" clip-rule="evenodd" stroke-linejoin="round" stroke-miterlimit="1.414"><path d="M54.5 40.977c0 2.209-1.723 4-3.846 4H13.345c-2.123 0-3.845-1.791-3.845-4V23.024c0-2.209 1.722-4 3.845-4h37.311c2.123 0 3.845 1.791 3.845 4L54.5 40.977z" fill="#fff" fill-rule="nonzero" stroke-width="1.5" stroke="#bdbdbd"/><path d="M54.5 40.977c0 2.209-1.723 4-3.846 4H31.5V19.024h19.158c2.122 0 3.845 1.791 3.845 4L54.5 40.977z" fill="#efefef"/><path d="M43.541 36.859l5.988-7.719H37.473l6.068 7.719z" fill="#888" fill-rule="nonzero"/><path d="M54.5 40.977c0 2.209-1.723 4-3.846 4H13.345c-2.123 0-3.845-1.791-3.845-4V23.024c0-2.209 1.722-4 3.845-4h37.311c2.123 0 3.845 1.791 3.845 4L54.5 40.977z" fill="none" stroke-width="1.5" stroke="#bdbdbd"/></svg>