<svg preserveAspectRatio="xMinYMid" viewBox="0 0 64 64" xmlns="http://www.w3.org/2000/svg" fill-rule="evenodd" clip-rule="evenodd" stroke-linecap="round" stroke-miterlimit="1.414"><path d="M9.5 13.5a4 4 0 014-4h24a4 4 0 014 4v24a4 4 0 01-4 4h-24a4 4 0 01-4-4v-24z" fill="#fff" fill-opacity=".698"/><path d="M19.834 41.5H13.5a4 4 0 01-4-4v-24a4 4 0 014-4h24a4 4 0 014 4v6.167" fill="none" stroke="#888" stroke-opacity=".494" stroke-width="2" stroke-dasharray="4,4,0,0"/><path d="M22.5 26.5a4 4 0 014-4h24a4 4 0 014 4v24a4 4 0 01-4 4h-24a4 4 0 01-4-4v-24z" fill="#fdfdfd" stroke="#2ecc71" stroke-width="2" stroke-linecap="butt" stroke-linejoin="round"/><path d="M38.5 29.5v18m-9-9h18" fill="none" stroke="#2ecc71" stroke-width="2.345" stroke-linejoin="round"/></svg>