<svg preserveAspectRatio="xMinYMid" viewBox="0 0 64 64" xmlns="http://www.w3.org/2000/svg" fill-rule="evenodd" clip-rule="evenodd" stroke-linejoin="round" stroke-miterlimit="1.414"><circle cx="32" cy="32" r="22.5" fill="#ffd670" transform="translate(-.711 -.711) scale(1.02222)"/><circle cx="22.412" cy="29" r="3.112" fill="#2c3e50"/><circle cx="41.588" cy="29" r="3.112" fill="#2c3e50"/><path d="M40 34.867C40 33.672 38.924 33 37.6 33H26.4c-1.324 0-2.4.644-2.4 1.867C24 36.089 25.48 41 32 41s8-4.939 8-6.133z" fill="#34495e"/><path d="M28.478 40.412a2.012 2.012 0 01-.145-.745C28.333 38.195 29.976 37 32 37s3.667 1.195 3.667 2.667c0 .257-.051.506-.144.741-.968.366-2.13.592-3.523.592-1.392 0-2.554-.224-3.522-.588z" fill="#de524b"/><circle cx="41.588" cy="29" r="3.112" fill="#ffba59" transform="translate(7.609 7.044) scale(.96401)"/><circle cx="41.588" cy="29" r="3.112" fill="#ffba59" transform="translate(-23.791 7.044) scale(.96401)"/></svg>