<svg preserveAspectRatio="xMinYMid" viewBox="0 0 64 64" xmlns="http://www.w3.org/2000/svg" fill-rule="evenodd" clip-rule="evenodd" stroke-linejoin="round" stroke-miterlimit="1.414"><path d="M55.87 23.033c.115-1.636-1.228-4.402-4.226-4.402H40.689c0-1.203.498-2.857 1.494-4.963s1.494-3.771 1.494-4.995c0-2.033-.332-3.538-.996-4.513-.664-.975-1.992-1.462-3.983-1.462-.54.539-.934 1.421-1.183 2.645a57.065 57.065 0 01-.95 3.906c-.383 1.38-1 2.515-1.85 3.407-.457.477-1.67 1.74-2.81 3.15-2.137 2.581-4.13 5.303-6.045 6.529-.959.614-2.1.28-2.1.28s-.055 19.874 0 19.917c9.253.133 24.12 5.73 27.51-.591.399-.743.35-1.71 0-2.365.623-.332 1.722-.994 2.023-2.943a4.76 4.76 0 00-.56-3.126c1.1-1.037 1.622-2.272 1.65-3.703.041-2.171-.779-2.853-1.09-3.206.664-.02 2.426-1.409 2.578-3.565z" fill="#fff" fill-rule="nonzero" stroke="#858990" stroke-width="2"/><circle cx="285.113" cy="1413.27" r="65.022" fill="#fff" transform="translate(9.687 -5.17) scale(.03112)"/><path fill="#2ecc71" d="M9.89 20.322h14.845v24.355H9.89z"/><circle cx="285.113" cy="1413.27" r="65.022" fill="#fdfdfd" transform="translate(11.687 -3.17) scale(.03112)"/></svg>