<svg preserveAspectRatio="xMinYMid" viewBox="0 0 64 64" xmlns="http://www.w3.org/2000/svg" fill-rule="evenodd" clip-rule="evenodd" stroke-linejoin="round" stroke-miterlimit="1.414"><path d="M12.423 44.577a7 7 0 1114 0 7 7 0 01-14 0z" fill="#fff" fill-rule="nonzero" stroke-width="1.0033362000000001" stroke="#bdbdbd"/><path d="M37.577 44.576a7 7 0 1114 0 7 7 0 01-14 0z" fill="#fff" fill-rule="nonzero" stroke-width="1.003" stroke="#bdbdbd"/><path d="M12.423 19.425a7 7 0 1114 0 7 7 0 01-14 0z" fill="#fff" fill-rule="nonzero" stroke-width="1.0033362000000001" stroke="#bdbdbd"/><path d="M15.923 19.424a3.5 3.5 0 117 0 3.5 3.5 0 01-7 0z" fill="#ffba59" fill-rule="nonzero"/><path d="M37.577 19.423a7 7 0 1114 0 7 7 0 01-14 0z" fill="#fff" fill-rule="nonzero" stroke-width="1.0033362000000001" stroke="#bdbdbd"/><path d="M12.423 32h39.154M32 12.423v39.154" fill="none" stroke-linecap="round" stroke="#858990"/></svg>