<svg preserveAspectRatio="xMinYMid" viewBox="0 0 64 64" xmlns="http://www.w3.org/2000/svg" fill-rule="evenodd" clip-rule="evenodd" stroke-linejoin="round" stroke-miterlimit="1.414"><path d="M50 42.925A7.076 7.076 0 0142.924 50H21.076A7.076 7.076 0 0114 42.925V21.077A7.076 7.076 0 0121.076 14h21.848A7.076 7.076 0 0150 21.078v21.848z" fill="#fff" fill-rule="nonzero" stroke-width="1.496" stroke="#bdbdbd"/><path d="M42.597 23.172a.751.751 0 00-1.067 0l-11.232 11.18a.748.748 0 01-1.067 0L24.31 29.34a.747.747 0 00-1.067 0l-2.175 1.955a.755.755 0 000 1.075l4.963 5.208c.294.299.775.78 1.067 1.075l2.134 2.151a.755.755 0 001.067 0l14.433-14.406a.766.766 0 000-1.076l-2.135-2.15z" fill="#ffba59" fill-rule="nonzero"/></svg>