<svg preserveAspectRatio="xMinYMid" viewBox="0 0 64 64" xmlns="http://www.w3.org/2000/svg" fill-rule="evenodd" clip-rule="evenodd" stroke-miterlimit="1.414"><path d="M54.5 50.441c0 2.209-1.723 4-3.846 4h-37.31c-2.123 0-3.845-1.791-3.845-4v-9.953c0-2.209 1.722-4 3.845-4h37.312c2.123 0 3.844 1.791 3.844 4v9.953zm0-26.879c0 2.209-1.723 4-3.846 4h-37.31c-2.123 0-3.845-1.791-3.845-4v-9.953c0-2.209 1.722-4 3.845-4h37.312c2.123 0 3.844 1.791 3.844 4v9.953z" fill="#fff" fill-rule="nonzero" stroke-width="1.5" stroke="#bdbdbd"/><path d="M19.372 20.893l-.672 2.421h-2.213l2.885-9.44h2.802l2.927 9.44h-2.297l-.729-2.422-2.703.001zm2.396-1.6l-.588-2.003c-.168-.561-.336-1.261-.476-1.819h-.028c-.14.56-.28 1.273-.434 1.819l-.561 2.003h2.087zm7.417-5.294c.561-.11 1.695-.194 2.76-.194 1.302 0 2.101.126 2.788.531.658.351 1.138.994 1.138 1.85 0 .841-.49 1.625-1.558 2.018v.027c1.078.294 1.877 1.105 1.877 2.324 0 .854-.393 1.527-.979 2.004-.688.547-1.834.854-3.711.854-1.051 0-1.835-.068-2.312-.141l-.003-9.273zm2.114 3.613H32c1.121 0 1.723-.462 1.723-1.162 0-.715-.547-1.093-1.513-1.093-.462 0-.729.027-.911.056v2.199zm0 4.19c.21.027.462.027.827.027.966 0 1.821-.364 1.821-1.359 0-.951-.854-1.329-1.919-1.329h-.729v2.661zM47.4 23.047c-.394.196-1.273.406-2.422.406-3.267 0-4.945-2.03-4.945-4.72 0-3.222 2.299-5.015 5.154-5.015 1.104 0 1.945.224 2.326.42l-.437 1.693a4.63 4.63 0 00-1.793-.35c-1.695 0-3.015 1.021-3.015 3.123 0 1.892 1.119 3.081 3.023 3.081.646 0 1.359-.14 1.779-.308l.33 1.67z" fill="#56afb1" fill-rule="nonzero"/><path d="M17.677 40.855c.785-.127 1.807-.195 2.886-.195 1.793 0 2.956.322 3.866 1.008.98.729 1.597 1.895 1.597 3.561 0 1.807-.658 3.055-1.569 3.822-.995.826-2.507 1.221-4.356 1.221a17.86 17.86 0 01-2.423-.143v-9.271l-.001-.003zm2.143 7.704c.182.043.476.043.742.043 1.933.015 3.194-1.051 3.194-3.307.014-1.961-1.135-2.998-2.97-2.998-.476 0-.785.043-.966.084v6.178zm16.046-2.381h-3.474v2.24h3.879v1.752h-6.023v-9.441h5.828v1.752h-3.684v1.961h3.474v1.736zm4.687-5.449h5.771v1.752h-3.629v2.156h3.391v1.736h-3.391v3.797H40.55l.003-9.441z" fill="#f90" fill-rule="nonzero"/></svg>