<svg preserveAspectRatio="xMinYMid" viewBox="0 0 64 64" xmlns="http://www.w3.org/2000/svg" fill-rule="evenodd" clip-rule="evenodd" stroke-miterlimit="1.414"><path d="M54.5 40.977c0 2.209-1.723 4-3.846 4H13.345c-2.123 0-3.845-1.791-3.845-4V23.024c0-2.209 1.722-4 3.845-4h37.311c2.123 0 3.845 1.791 3.845 4L54.5 40.977z" fill="#fff" fill-rule="nonzero" stroke-width="1.5" stroke="#bdbdbd"/><path d="M20.823 28.896h-.028l-1.737.826-.351-1.597 2.41-1.12h1.765v9.104h-2.059v-7.213zm7.88 7.213V34.82l1.177-1.064c1.989-1.778 2.956-2.801 2.983-3.866 0-.742-.448-1.33-1.5-1.33-.784 0-1.471.392-1.947.756l-.603-1.526c.687-.519 1.751-.938 2.984-.938 2.061 0 3.193 1.204 3.193 2.857 0 1.526-1.106 2.745-2.424 3.922l-.84.7v.028h3.432v1.75h-6.455zm10.977-2.088c.379.195 1.246.562 2.115.562 1.105 0 1.666-.533 1.666-1.219 0-.896-.896-1.303-1.834-1.303h-.869v-1.527h.826c.715-.014 1.625-.28 1.625-1.051 0-.546-.447-.952-1.344-.952-.743 0-1.527.322-1.906.546l-.434-1.54c.547-.351 1.639-.687 2.813-.687 1.947 0 3.026 1.022 3.026 2.269 0 .967-.549 1.724-1.668 2.115v.028c1.093.196 1.976 1.022 1.976 2.212 0 1.61-1.415 2.789-3.726 2.789-1.18 0-2.174-.311-2.704-.646l.438-1.596z" fill="#56afb1" fill-rule="nonzero"/></svg>