<svg preserveAspectRatio="xMinYMid" viewBox="0 0 64 64" xmlns="http://www.w3.org/2000/svg" fill-rule="evenodd" clip-rule="evenodd" stroke-linecap="round" stroke-miterlimit="2"><path d="M54.5 40.977c0 2.209-1.723 4-3.846 4H13.345c-2.123 0-3.845-1.791-3.845-4V23.024c0-2.209 1.722-4 3.845-4h37.311c2.123 0 3.845 1.791 3.845 4L54.5 40.977z" fill="#ffd670" fill-rule="nonzero"/><path d="M15 44.977V28" fill="none" stroke="#34495e" stroke-width="2.44" transform="matrix(1 0 0 .58768 1 17.545)"/><path d="M15 44.977V28" fill="none" stroke="#7d8c8e" stroke-width="2.64" transform="matrix(1 0 0 .37998 9.25 26.887)"/><path d="M15 44.977V28" fill="none" stroke="#34495e" stroke-width="2.44" transform="matrix(1 0 0 .58768 17.5 17.545)"/><path d="M15 44.977V28" fill="none" stroke="#7d8c8e" stroke-width="2.64" transform="matrix(1 0 0 .37998 25.75 26.887)"/><path d="M15 44.977V28" fill="none" stroke="#34495e" stroke-width="2.44" transform="matrix(1 0 0 .58768 34 17.545)"/></svg>