<svg preserveAspectRatio="xMinYMid" viewBox="0 0 64 64" xmlns="http://www.w3.org/2000/svg" fill-rule="evenodd" clip-rule="evenodd" stroke-miterlimit="1.414"><path d="M32 5.5l-8.488 9.875M32 5.5l8.488 9.875" fill="none" stroke="#888"/><path d="M54.5 44.625c0 2.21-1.79 4-4 4h-37c-2.21 0-4-1.79-4-4v-25.25c0-2.21 1.79-4 4-4h37c2.21 0 4 1.79 4 4v25.25z" fill="#fdfdfd" fill-rule="nonzero" stroke="#bdbdbd" stroke-width="1.5"/><circle cx="32" cy="5.812" r="2" fill="#444"/><g transform="matrix(1.31868 0 0 .92683 -2.165 2.341)"><path d="M40.317 19.627c0-1.124-.641-2.035-1.431-2.035H12.93c-.789 0-1.43.911-1.43 2.035v24.746c0 1.124.641 2.035 1.43 2.035h25.956c.79 0 1.431-.911 1.431-2.035V19.627z" fill="#6da"/><clipPath id="a"><path d="M40.317 19.627c0-1.124-.641-2.035-1.431-2.035H12.93c-.789 0-1.43.911-1.43 2.035v24.746c0 1.124.641 2.035 1.43 2.035h25.956c.79 0 1.431-.911 1.431-2.035V19.627z"/></clipPath><g clip-path="url(#a)"><path d="M40.316 17.592H11.5v28.816l28.816-28.816z" fill="#5ac8fa"/><path d="M11.5 46.408h28.816L25.908 32 11.5 46.408z" fill="#ffcc01"/></g></g></svg>