<svg preserveAspectRatio="xMinYMid" viewBox="0 0 96 96" xmlns="http://www.w3.org/2000/svg" fill-rule="evenodd" clip-rule="evenodd" stroke-linejoin="round" stroke-miterlimit="1.414"><path d="M34.92 29.684a1.31 1.31 0 00-1.31-1.308H10.067c-.722 0-1.308.586-1.308 1.308v47c0 .721.586 1.307 1.308 1.307H33.61a1.31 1.31 0 001.309-1.308V29.684z" fill="#f90"/><path d="M87.243 47.308A1.31 1.31 0 0085.933 46H62.39c-.722 0-1.308.586-1.308 1.308v29.376c0 .721.586 1.307 1.308 1.307h23.545a1.31 1.31 0 001.309-1.307V47.308z" fill="#ffce54"/><path d="M64.412 15.65c0-.906-.736-1.641-1.642-1.641H33.23c-.906 0-1.642.735-1.642 1.64v60.702c0 .905.736 1.64 1.642 1.64h29.54c.906 0 1.642-.735 1.642-1.64V15.65z" fill="#f67d7e"/><path d="M50.524 71.94h-4.068V45.77c0-2.177.069-4.235.202-6.176-.352.351-.746.72-1.179 1.101-.437.386-2.43 2.02-5.98 4.9l-2.207-2.864 9.717-7.51h3.515V71.94zm31.727-16.113c0 1.367-.386 2.486-1.149 3.352-.767.87-1.856 1.453-3.262 1.744v.116c1.72.219 2.997.763 3.824 1.642.831.878 1.247 2.032 1.247 3.459 0 2.04-.707 3.61-2.126 4.706-1.414 1.102-3.429 1.65-6.035 1.65a17.44 17.44 0 01-3.112-.257 10.748 10.748 0 01-2.748-.9v-2.314c.93.458 1.916.806 2.967 1.046 1.05.24 2.044.36 2.983.36 3.699 0 5.55-1.45 5.55-4.351 0-2.598-2.04-3.896-6.125-3.896h-2.108v-2.097h2.138c1.672 0 2.997-.368 3.97-1.105.977-.738 1.466-1.758 1.466-3.07 0-1.041-.36-1.864-1.076-2.46-.72-.596-1.693-.891-2.924-.891-.938 0-1.821.124-2.649.381-.831.253-1.778.72-2.841 1.406l-1.23-1.642a10.187 10.187 0 013.038-1.633 11.048 11.048 0 013.622-.596c2.084 0 3.7.48 4.853 1.432 1.148.952 1.727 2.259 1.727 3.918zM27.52 72.2H13.443v-2.09l5.637-5.672c1.719-1.736 2.855-2.979 3.4-3.72.548-.742.96-1.466 1.23-2.17a6.177 6.177 0 00.41-2.267c0-1.144-.346-2.049-1.04-2.717-.69-.67-1.655-1.003-2.886-1.003-.887 0-1.731.145-2.524.437-.798.296-1.685.827-2.662 1.599l-1.286-1.655c1.972-1.642 4.12-2.465 6.442-2.465 2.015 0 3.592.519 4.733 1.548 1.144 1.028 1.714 2.413 1.714 4.153 0 1.36-.381 2.7-1.144 4.03-.759 1.324-2.186 3.004-4.274 5.036l-4.69 4.587v.115H27.52v2.255z" fill="#fff" fill-rule="nonzero"/></svg>