<svg preserveAspectRatio="xMinYMid" viewBox="0 0 64 64" xmlns="http://www.w3.org/2000/svg" fill-rule="evenodd" clip-rule="evenodd" stroke-linejoin="round" stroke-miterlimit="1.414"><path d="M54.632 25.646a2.858 2.858 0 00-2.3-1.94L40.05 21.921l-5.494-11.129a2.85 2.85 0 00-5.112 0l-5.491 11.129-12.285 1.783a2.848 2.848 0 00-2.3 1.941 2.845 2.845 0 00.722 2.922l8.888 8.664-2.097 12.234a2.852 2.852 0 002.807 3.331c.453 0 .909-.108 1.325-.327L32 46.694l10.987 5.776a2.845 2.845 0 003-.217 2.854 2.854 0 001.134-2.787l-2.098-12.235 8.888-8.664a2.852 2.852 0 00.721-2.92z" fill="none" stroke-width="4.001" stroke="#bdbdbd"/><path d="M54.632 25.646a2.858 2.858 0 00-2.3-1.94L40.05 21.921l-5.494-11.129a2.85 2.85 0 00-5.112 0l-5.491 11.129-12.285 1.783a2.848 2.848 0 00-2.3 1.941 2.845 2.845 0 00.722 2.922l8.888 8.664-2.097 12.234a2.852 2.852 0 002.807 3.331c.453 0 .909-.108 1.325-.327L32 46.694l10.987 5.776a2.845 2.845 0 003-.217 2.854 2.854 0 001.134-2.787l-2.098-12.235 8.888-8.664a2.852 2.852 0 00.721-2.92z" fill="#fff" fill-rule="nonzero"/></svg>