<svg preserveAspectRatio="xMinYMid" viewBox="0 0 64 64" xmlns="http://www.w3.org/2000/svg" fill-rule="evenodd" clip-rule="evenodd" stroke-miterlimit="1.414"><path d="M54.5 40.977c0 2.209-1.723 4-3.846 4H13.345c-2.123 0-3.845-1.791-3.845-4V23.024c0-2.209 1.722-4 3.845-4h37.311c2.123 0 3.845 1.791 3.845 4L54.5 40.977z" fill="#fff" fill-rule="nonzero" stroke-width="1.5" stroke="#bdbdbd"/><path d="M19.311 33.688l-.672 2.422h-2.213l2.885-9.439h2.802l2.927 9.439h-2.297l-.729-2.422h-2.703zm2.396-1.599l-.588-2.003c-.168-.561-.336-1.261-.476-1.82h-.028c-.14.56-.28 1.274-.434 1.82l-.561 2.003h2.087zm7.417-5.295c.561-.111 1.695-.195 2.76-.195 1.302 0 2.101.126 2.788.532.658.35 1.135.994 1.135 1.849 0 .841-.49 1.625-1.556 2.018v.027c1.079.294 1.877 1.106 1.877 2.325 0 .854-.392 1.527-.979 2.004-.687.547-1.834.854-3.71.854-1.051 0-1.835-.067-2.312-.142l-.003-9.272zm2.115 3.614h.701c1.121 0 1.723-.462 1.723-1.162 0-.715-.547-1.093-1.513-1.093-.462 0-.729.027-.911.056v2.199zm0 4.19c.21.027.462.027.827.027.966 0 1.821-.364 1.821-1.359 0-.952-.854-1.33-1.919-1.33h-.729v2.662zm16.102 1.245c-.392.196-1.274.406-2.423.406-3.264 0-4.945-2.03-4.945-4.72 0-3.222 2.299-5.015 5.155-5.015 1.106 0 1.947.224 2.325.42l-.434 1.694a4.626 4.626 0 00-1.793-.35c-1.695 0-3.014 1.022-3.014 3.123 0 1.892 1.12 3.082 3.023 3.082.646 0 1.359-.14 1.779-.308l.327 1.668z" fill="#56afb1" fill-rule="nonzero"/></svg>