<svg preserveAspectRatio="xMinYMid" viewBox="0 0 64 64" xmlns="http://www.w3.org/2000/svg" fill-rule="evenodd" clip-rule="evenodd" stroke-linejoin="round" stroke-miterlimit="1.414"><path d="M10.646 31.726c-.173 7.167-.187 21.505-.187 21.505 7.23.06 14.462.12 21.691 0 4.311-.072 8.434-1.252 12.024-3.673 11.042-7.444 12.6-23.62 3.183-33.037-9.417-9.418-25.593-7.86-33.038 3.182-2.434 3.61-3.569 7.697-3.673 12.023z" fill="#2ecc71" fill-rule="nonzero"/><path d="M16.579 24.223c.883-.186 2.278-.326 3.695-.326 2.022 0 3.325.348 4.301 1.139.813.604 1.302 1.533 1.302 2.766 0 1.512-1 2.837-2.65 3.441v.045c1.487.373 3.231 1.604 3.231 3.929 0 1.348-.535 2.373-1.325 3.139-1.093 1-2.859 1.466-5.417 1.466-1.395 0-2.464-.094-3.138-.188V24.223h.001zm2.022 6.416h1.836c2.139 0 3.394-1.117 3.394-2.627 0-1.836-1.395-2.557-3.44-2.557-.931 0-1.464.07-1.79.14v5.044zm0 7.507c.395.069.976.095 1.697.095 2.091 0 4.021-.769 4.021-3.045 0-2.14-1.836-3.023-4.045-3.023h-1.673v5.973zm11.35-9.716l2.464 6.647c.256.744.534 1.628.721 2.302h.046c.209-.674.442-1.533.722-2.347l2.231-6.603h2.162l-3.069 8.02c-1.465 3.859-2.464 5.834-3.858 7.043-1 .884-2 1.232-2.511 1.325l-.512-1.721a5.406 5.406 0 001.791-.999c.558-.441 1.255-1.232 1.72-2.276.093-.211.163-.374.163-.489 0-.117-.046-.279-.14-.536L27.72 28.43h2.231zm11.117 5.996c.048 2.768 1.813 3.906 3.859 3.906 1.464 0 2.347-.255 3.115-.581l.349 1.464c-.722.325-1.954.698-3.742.698-3.464 0-5.533-2.278-5.533-5.672 0-3.394 2-6.067 5.277-6.067 3.672 0 4.649 3.231 4.649 5.299 0 .419-.048.744-.07.952h-7.904v.001zm5.998-1.463c.021-1.302-.536-3.324-2.835-3.324-2.069 0-2.976 1.906-3.139 3.324h5.974z" fill="#fdfdfd" fill-rule="nonzero"/></svg>