<svg preserveAspectRatio="xMinYMid" viewBox="0 0 64 64" xmlns="http://www.w3.org/2000/svg" fill-rule="evenodd" clip-rule="evenodd" stroke-linejoin="round" stroke-miterlimit="1.414"><path d="M53.353 31.726c.173 7.167.187 21.505.187 21.505-7.23.06-14.462.12-21.69 0-4.312-.072-8.435-1.252-12.025-3.673-11.042-7.444-12.599-23.62-3.183-33.037 9.418-9.418 25.593-7.86 33.038 3.182 2.434 3.61 3.57 7.697 3.673 12.023z" fill="#007aff" fill-rule="nonzero"/><path d="M25.024 23.66v6.75h7.802v-6.75h2.106v16.131h-2.106v-7.563h-7.802v7.563h-2.082v-16.13h2.082zm16.033 1.293c.023.718-.503 1.293-1.34 1.293-.742 0-1.27-.575-1.27-1.293 0-.742.551-1.316 1.316-1.316.791 0 1.294.574 1.294 1.316zm-2.346 14.838V28.21h2.106v11.58h-2.106z" fill="#fff" fill-rule="nonzero"/></svg>