<svg preserveAspectRatio="xMinYMid" viewBox="0 0 64 64" xmlns="http://www.w3.org/2000/svg" fill-rule="evenodd" clip-rule="evenodd" stroke-linecap="round" stroke-linejoin="round" stroke-miterlimit="10"><path d="M12.085 34.956c-1.06-7.939 6.1-13.988 10.864-15.93" fill="none" stroke="#59a8fe" stroke-width="2"/><path d="M24.856 14.219l-4.91 12.38 13.926 23.182L52.02 38.877 38.093 15.695l-13.237-1.477zm2.103 7.609a2.118 2.118 0 003.63-2.18 2.12 2.12 0 00-2.905-.724 2.115 2.115 0 00-.725 2.904z" fill="#ebedee" fill-rule="nonzero" stroke="#ccc"/><path d="M26.959 21.828a2.118 2.118 0 003.63-2.18 2.12 2.12 0 00-2.905-.724 2.115 2.115 0 00-.725 2.904z" fill="#fff" fill-rule="nonzero" stroke="#34495e"/><path d="M28.608 20.199c-2.293 3.88-.27 6.7-4.663 13.581-4.393 6.88-11.24 5.83-11.861 1.176" fill="none" stroke="#59a8fe" stroke-width="2"/></svg>