<svg preserveAspectRatio="xMinYMid" viewBox="0 0 64 64" xmlns="http://www.w3.org/2000/svg" fill-rule="evenodd" clip-rule="evenodd" stroke-linejoin="round" stroke-miterlimit="1.414"><path d="M24.673 15.875c0-1.035-.613-1.875-1.368-1.875H12.367c-.754 0-1.367.84-1.367 1.875v21.25C11 38.16 11.613 39 12.367 39h10.938c.755 0 1.368-.84 1.368-1.875v-21.25z" fill="#fff" stroke-width="1.25" stroke="#ccc" transform="matrix(.87764 0 0 .71619 -1.654 13.021)"/><path d="M24.673 15.875c0-1.035-.613-1.875-1.368-1.875H12.367c-.754 0-1.367.84-1.367 1.875v21.25C11 38.16 11.613 39 12.367 39h10.938c.755 0 1.368-.84 1.368-1.875v-21.25z" fill="#fff" stroke-width="1.25" stroke="#ccc" transform="matrix(.87764 0 0 .71619 16.346 13.021)"/><path d="M24.673 15.875c0-1.035-.613-1.875-1.368-1.875H12.367c-.754 0-1.367.84-1.367 1.875v21.25C11 38.16 11.613 39 12.367 39h10.938c.755 0 1.368-.84 1.368-1.875v-21.25z" fill="#fff" stroke-width="1.25" stroke="#ccc" transform="matrix(.87764 0 0 .71619 34.346 13.021)"/><circle cx="15" cy="32" r="3" fill="#ff758e" transform="translate(-6 -10.667) scale(1.33333)"/><circle cx="15" cy="32" r="3" fill="#70e5b2" transform="translate(12 -10.667) scale(1.33333)"/><circle cx="15" cy="32" r="3" fill="#ffd46e" transform="translate(30 -10.667) scale(1.33333)"/></svg>