<svg preserveAspectRatio="xMinYMid" viewBox="0 0 64 64" xmlns="http://www.w3.org/2000/svg" fill-rule="evenodd" clip-rule="evenodd" stroke-miterlimit="1.414"><path d="M54.5 44.625c0 2.21-1.79 4-4 4h-37c-2.21 0-4-1.79-4-4v-25.25c0-2.21 1.79-4 4-4h37c2.21 0 4 1.79 4 4v25.25z" fill="#ebedee" fill-rule="nonzero"/><clipPath id="a"><path d="M54.5 44.625c0 2.21-1.79 4-4 4h-37c-2.21 0-4-1.79-4-4v-25.25c0-2.21 1.79-4 4-4h37c2.21 0 4 1.79 4 4v25.25z" clip-rule="nonzero"/></clipPath><g clip-path="url(#a)"><path d="M53.808 17.173C53.766 17.166 32 38.276 32 38.276s-21.601-20.931-21.788-21.13a3.744 3.744 0 013.038-1.552h37.5c1.262 0 2.378.623 3.058 1.579z" fill="#fdfdfd" fill-rule="nonzero"/></g><path d="M54.5 44.625c0 2.21-1.79 4-4 4h-37c-2.21 0-4-1.79-4-4v-25.25c0-2.21 1.79-4 4-4h37c2.21 0 4 1.79 4 4v25.25z" fill="none" stroke="#bdbdbd" stroke-width="1.5"/></svg>