<svg preserveAspectRatio="xMinYMid" viewBox="0 0 64 64" xmlns="http://www.w3.org/2000/svg" fill-rule="evenodd" clip-rule="evenodd" stroke-linejoin="round" stroke-miterlimit="1.414"><path d="M9.5 46.876a3.964 3.964 0 003.967 3.967h37.066a3.966 3.966 0 003.967-3.967V17.124a3.966 3.966 0 00-3.967-3.967H13.467A3.965 3.965 0 009.5 17.124v29.752z" fill="#f3f3f3" fill-rule="nonzero" stroke="#ccc"/><path d="M26.131 30.298a5.02 5.02 0 00-1.475-3.561 5.023 5.023 0 00-3.562-1.476 5.022 5.022 0 00-3.563 1.476 5.022 5.022 0 00-1.475 3.561c0 1.392.564 2.651 1.475 3.562a5.023 5.023 0 003.563 1.476c1.391 0 2.65-.564 3.562-1.476a5.022 5.022 0 001.475-3.562z" fill="#888" fill-rule="nonzero"/><path d="M15.048 40.374c0 1.007 2.267 2.015 6.046 2.015 3.544 0 6.045-1.008 6.045-2.015 0-2.015-2.372-4.03-6.045-4.03-3.779 0-6.046 2.015-6.046 4.03z" fill="#444" fill-rule="nonzero"/><path d="M34.72 26.71h14.381" fill="none" stroke="#444" stroke-width="1.5" stroke-linejoin="miter" transform="matrix(1.18914 0 0 1 -9.287 0)"/><path d="M34.72 32.711h14.381" fill="none" stroke="#444" stroke-width="1.5" stroke-linejoin="miter" transform="matrix(1.18914 0 0 1 -9.287 .5)"/><path d="M34.72 39.711h14.381" fill="none" stroke="#444" stroke-width="1.5" stroke-linejoin="miter" transform="matrix(1.18914 0 0 1 -9.287 0)"/><path d="M20.135 15.746a1.865 1.865 0 003.73 0v-4.934a1.865 1.865 0 00-3.73 0v4.934zm10 0a1.865 1.865 0 003.73 0v-4.934a1.865 1.865 0 00-3.73 0v4.934zm10 0a1.865 1.865 0 003.73 0v-4.934a1.865 1.865 0 00-3.73 0v4.934z" fill="#ffba59" fill-rule="nonzero"/></svg>